<svg xmlns="http://www.w3.org/2000/svg" width="48" height="48" id="communication">
  <g transform="translate(0 -1004.362)">
    <circle cx="24" cy="1028.362" r="24" fill="#ffa40b" fill-rule="evenodd"></circle>
    <path fill="#ff7712" d="M29.063 47.43a24 24 0 0 0 1.357-.305 24 24 0 0 0 2.277-.756 24 24 0 0 0 2.19-.98 24 24 0 0 0 2.08-1.194 24 24 0 0 0 1.951-1.394 24 24 0 0 0 1.803-1.584 24 24 0 0 0 1.634-1.756 24 24 0 0 0 1.454-1.91 24 24 0 0 0 1.254-2.045 24 24 0 0 0 1.042-2.16 24 24 0 0 0 .823-2.254 24 24 0 0 0 .593-2.324 24 24 0 0 0 .03-.194l-9.985-9.984a2.77 2.77 0 0 0 1.204-2.281 2.77 2.77 0 0 0-2.77-2.77 2.77 2.77 0 0 0-2.283 1.201l-7.266-4.195A2.77 2.77 0 0 0 23.691 8a2.77 2.77 0 0 0-2.767 2.77 2.77 2.77 0 0 0 .004.115l-6.657 3.844A2.77 2.77 0 0 0 12 13.539a2.77 2.77 0 0 0-2.77 2.77 2.77 2.77 0 0 0 2.254 2.718v8.1a2.77 2.77 0 0 0-2.254 2.719 2.77 2.77 0 0 0 2.77 2.77 2.77 2.77 0 0 0 1.678-.571L29.062 47.43zm-2.739-35.805 9.16 9.16v4.656L23.578 13.535a2.77 2.77 0 0 0 .113.004 2.77 2.77 0 0 0 2.633-1.914zm-11.638 4.02 6.238 6.238c.04.13.083.259.137.375.033.073.071.138.109.205.058.104.118.204.185.295.042.056.086.108.131.16.038.043.07.095.11.135l.2.2a1.8 1.8 0 0 1-.075.339v.002a1.37 1.37 0 0 1-.14.29v.003a1.458 1.458 0 0 1-.198.244 2.216 2.216 0 0 1-.256.219c-.448.332-1.099.59-1.787.884-.146.063-.293.147-.442.217l-6.416-6.416a2.77 2.77 0 0 0 2.288-2.726 2.77 2.77 0 0 0-.084-.664zm.03 14.714 2.679 2.678-3.034-1.752a2.77 2.77 0 0 0 .356-.926z" color="#000" font-family="sans-serif" font-weight="400" style="line-height:normal;text-indent:0;text-align:start;text-decoration-line:none;text-decoration-style:solid;text-decoration-color:#000;text-transform:none;block-progression:tb;isolation:auto;mix-blend-mode:normal" transform="translate(0 1004.362)"></path>
    <path fill="#fff" d="M15.691 0a2.77 2.77 0 0 0-2.767 2.77 2.77 2.77 0 0 0 .004.115L6.27 6.729A2.77 2.77 0 0 0 4 5.539a2.77 2.77 0 0 0-2.77 2.77 2.77 2.77 0 0 0 2.254 2.718v8.1a2.77 2.77 0 0 0-2.254 2.719A2.77 2.77 0 0 0 4 24.616a2.77 2.77 0 0 0 1.678-.571l6.904 3.988a2.77 2.77 0 0 0-.273 1.197A2.77 2.77 0 0 0 15.076 32a2.77 2.77 0 0 0 2.77-2.77 2.77 2.77 0 0 0-.018-.298l8.48-4.897a2.77 2.77 0 0 0 1.692.58 2.77 2.77 0 0 0 2.77-2.77 2.77 2.77 0 0 0-2.288-2.724v-8.086A2.77 2.77 0 0 0 30.77 8.31 2.77 2.77 0 0 0 28 5.539a2.77 2.77 0 0 0-2.283 1.201L18.45 2.545A2.77 2.77 0 0 0 15.691 0Zm2.633 3.625 6.987 4.035a2.77 2.77 0 0 0-.08.649 2.77 2.77 0 0 0 2.253 2.718v8.1a2.77 2.77 0 0 0-2.254 2.719 2.77 2.77 0 0 0 .399 1.425L17.53 27.95a2.77 2.77 0 0 0-2.455-1.488 2.77 2.77 0 0 0-1.902.76L6.36 23.285a2.77 2.77 0 0 0 .409-1.44 2.77 2.77 0 0 0-2.288-2.724v-8.086A2.77 2.77 0 0 0 6.77 8.31a2.77 2.77 0 0 0-.084-.664L13.168 3.9a2.77 2.77 0 0 0 2.523 1.64 2.77 2.77 0 0 0 2.633-1.915Zm-5.797 3.766a.301.301 0 0 0-.15.002.344.344 0 0 0-.25.326v2.345c0 .464.245.875.617 1.116V12.969c.075 1.066.484 1.811 1.057 2.27-.067.528-.295.834-.674 1.115-.448.332-1.099.59-1.787.884-.688.294-1.419.648-1.98 1.27-.563.622-.925 1.493-.924 2.75v.23l.191.076c4.73 2.732 9.106 3.048 14.385 0l.193-.076v-.23c0-1.227-.366-2.092-.924-2.694-.558-.601-1.281-.923-1.96-1.21-.68-.288-1.328-.544-1.77-.885-.434-.335-.683-.72-.692-1.461.598-.494 1.012-1.19 1.037-2.04V9.97c0-1.074-.813-1.961-1.845-1.961h-3.692c-.21 0-.386-.035-.463-.078-.076-.042-.095-.049-.095-.211.001-.155-.126-.292-.274-.328zm3.293 8.976c.498 0 .9.405.9.903a.938.938 0 0 1-.273.66s-.223.107-.127.466l.73 4.083-1.23.615-1.207-.623.742-4.075c.097-.297-.116-.45-.13-.466a.87.87 0 0 1-.307-.66c0-.498.404-.903.902-.903z" color="#000" font-family="sans-serif" font-weight="400" overflow="visible" style="line-height:normal;text-indent:0;text-align:start;text-decoration-line:none;text-decoration-style:solid;text-decoration-color:#000;text-transform:none;block-progression:tb;isolation:auto;mix-blend-mode:normal" transform="translate(8 1012.362)"></path>
  </g>
</svg>
