<svg xmlns="http://www.w3.org/2000/svg" width="48" height="48" id="company">
  <g transform="translate(0 -1004.362)">
    <circle cx="24" cy="1028.362" r="24" fill="#424242" fill-rule="evenodd"></circle>
    <path fill="#1f212a" d="M17.559 47.094a24 24 0 0 0 1.673.427 24 24 0 0 0 2.372.36A24 24 0 0 0 24 48a24 24 0 0 0 1.697-.06 24 24 0 0 0 2.383-.29 24 24 0 0 0 2.34-.525 24 24 0 0 0 2.277-.756 24 24 0 0 0 2.19-.98 24 24 0 0 0 2.08-1.194 24 24 0 0 0 1.951-1.394 24 24 0 0 0 1.803-1.584 24 24 0 0 0 1.634-1.756 24 24 0 0 0 1.454-1.91 24 24 0 0 0 1.254-2.045 24 24 0 0 0 1.042-2.16 24 24 0 0 0 .823-2.254 24 24 0 0 0 .593-2.324 24 24 0 0 0 .02-.125L27.145 8.248l-.057-.059c-.042-.041-.09-.073-.135-.11-.06-.052-.116-.105-.18-.15-.052-.036-.11-.063-.166-.095-.069-.04-.135-.085-.209-.117-.08-.036-.167-.057-.252-.082-.057-.017-.11-.042-.17-.055-.07-.015-.145-.015-.218-.023-.078-.009-.154-.026-.235-.026h-4.57c-.072 0-.128-.01-.191-.015l-.623-.623c-.006-.006-.015-.008-.022-.014a.452.452 0 0 0-.129-.078c-.015-.007-.028-.017-.045-.022a.37.37 0 0 0-.205-.01v.002a.416.416 0 0 0-.222.155.417.417 0 0 0-.088.252V10.084c0 .132.02.258.05.38.008.033.02.063.03.095.029.093.065.182.11.267a1.667 1.667 0 0 0 .227.33c.015.019.028.04.046.057l.021.025.28.28V13.678c.021.312.07.598.136.867.02.078.048.146.07.22.056.185.117.364.192.526.036.079.078.149.119.223.074.134.152.263.238.38.055.074.111.143.17.21.045.05.084.11.131.158l.246.246c-.02.154-.05.295-.094.422v.002a1.68 1.68 0 0 1-.418.666c-.093.094-.199.182-.316.27-.555.41-1.36.731-2.213 1.095-.852.364-1.757.8-2.453 1.57v.002a4.05 4.05 0 0 0-.473.637v.002c-.14.233-.26.488-.359.767v.002c-.1.28-.178.585-.23.916v.002c-.053.332-.08.69-.08 1.078v.288l3.75 3.75h-4.942c-.668 0-1.213.559-1.213 1.224v2.73l.735.735H8.825c-.457 0-.826.34-.826.762v3.81c0 .103.023.2.063.29.012.028.036.049.052.076.032.052.06.108.104.152l.023.021 9.317 9.317z" color="#000" font-family="sans-serif" font-weight="400" style="line-height:normal;text-indent:0;text-align:start;text-decoration-line:none;text-decoration-style:solid;text-decoration-color:#000;text-transform:none;block-progression:tb;isolation:auto;mix-blend-mode:normal" transform="translate(0 1004.362)"></path>
    <path fill="#fff" d="M11.738.393a.43.43 0 0 0-.31.406v2.904c0 .574.303 1.082.763 1.381v2.213c.093 1.32.6 2.243 1.309 2.81-.083.655-.365 1.033-.834 1.381-.555.412-1.36.732-2.213 1.096-.852.364-1.757.8-2.453 1.57s-1.143 1.85-1.143 3.407v.285l.239.095h6.597l.748-4.101c-.278-.355-.556-.74-.556-1.217 0-1.157.958-2.117 2.115-2.117v.002c1.157 0 2.115.96 2.115 2.117 0 .459-.24.85-.51 1.219l.733 4.097h6.566l.239-.095v-.285c0-1.52-.452-2.59-1.143-3.334-.691-.745-1.587-1.145-2.428-1.5-.84-.356-1.644-.674-2.191-1.096-.537-.415-.846-.892-.858-1.809.74-.611 1.253-1.474 1.286-2.525V3.584c0-1.33-1.007-2.43-2.286-2.43h-4.57c-.261 0-.477-.041-.572-.093-.095-.053-.12-.061-.12-.262.003-.255-.276-.473-.523-.406zM16 11.506c-.616 0-1.115.499-1.115 1.115 0 .325.14.61.377.818.018.021.283.212.164.58l-.92 5.043 1.494.772 1.523-.764-.902-5.05c-.12-.446.156-.58.156-.58.213-.207.338-.514.338-.819 0-.616-.499-1.115-1.115-1.115zm-1.488 2.484c.005.033-.003.066.01.088a.41.41 0 0 0 .064.09c.001.01.003.01.004.01l.012.011c-.055-.047-.042-.144-.09-.199zm3 .08c-.003.007-.002.015-.008.022.002-.01.004-.01.006-.01.003-.005.002-.009.002-.012zM15.5 20.701v.895H5.666c-.668 0-1.213.559-1.213 1.224v2.73h1v-2.73c0-.138.091-.224.213-.224H15.5v2.93h1v-2.93h9.834c.122 0 .213.087.213.224v2.729h1V22.82c0-.665-.545-1.224-1.213-1.224H16.5V20.7l-.508.254-.492-.254ZM.826 26.285c-.457 0-.826.34-.826.762v3.81c0 .423.369.762.826.762H9.08c.457 0 .824-.34.824-.762v-3.81c0-.422-.367-.762-.824-.762H.826zm11.365 0a.762.762 0 0 0-.763.762v3.81c0 .423.341.762.763.762h7.618c.422 0 .763-.34.763-.762v-3.81a.762.762 0 0 0-.763-.762H12.19zm10.729 0c-.457 0-.824.34-.824.762v3.81c0 .423.367.762.824.762h8.254c.457 0 .826-.34.826-.762v-3.81c0-.422-.369-.762-.826-.762H22.92z" color="#000" font-family="sans-serif" font-weight="400" overflow="visible" style="line-height:normal;text-indent:0;text-align:start;text-decoration-line:none;text-decoration-style:solid;text-decoration-color:#000;text-transform:none;block-progression:tb;isolation:auto;mix-blend-mode:normal" transform="translate(8 1010.743)"></path>
  </g>
</svg>
