<svg xmlns="http://www.w3.org/2000/svg" width="48" height="48" id="men">
  <g transform="translate(0 -1004.362)">
    <circle cx="24" cy="1028.362" r="24" fill="#3a6c87"></circle>
    <path fill="#2f4b6c" d="M27.455 47.727a24 24 0 0 0 .625-.077 24 24 0 0 0 2.34-.525 24 24 0 0 0 2.277-.756 24 24 0 0 0 2.19-.98 24 24 0 0 0 2.08-1.194 24 24 0 0 0 1.951-1.394 24 24 0 0 0 1.803-1.584 24 24 0 0 0 1.634-1.756 24 24 0 0 0 1.454-1.91 24 24 0 0 0 1.254-2.045 24 24 0 0 0 1.042-2.16 24 24 0 0 0 .823-2.254 24 24 0 0 0 .593-2.324 24 24 0 0 0 .315-2.077L36.529 15.385l-.027-.03a.307.307 0 0 0-.115-.068c-.008-.003-.013-.011-.022-.014a.275.275 0 0 0-.136 0v.002a.346.346 0 0 0-.178.112.289.289 0 0 0-.074.19v.001c0 .073-.005.112-.018.137-.014.025-.037.037-.072.056-.07.04-.23.073-.424.073h-3.404c-.477 0-.901.204-1.207.533a1.825 1.825 0 0 0-.362.574v.002c-.042.107-.077.22-.1.336v.002c-.011.063-.011.129-.017.193l-3.088-3.088-.06-.06c-.04-.04-.088-.072-.131-.11-.064-.055-.126-.111-.196-.16-.053-.037-.113-.066-.17-.1-.075-.043-.148-.091-.228-.126-.067-.03-.14-.046-.21-.069-.076-.024-.147-.055-.226-.072-.069-.014-.143-.015-.214-.023-.086-.01-.17-.028-.258-.028h-4.774c-.074 0-.133-.01-.199-.015l-.627-.627-.023-.024a.486.486 0 0 0-.184-.105c-.015-.006-.025-.022-.04-.025v.002a.408.408 0 0 0-.194 0 .436.436 0 0 0-.233.16.43.43 0 0 0-.091.261V16.311c0 .136.021.267.052.394.01.036.02.07.032.106.03.097.068.19.115.279.014.027.027.054.043.08.056.095.122.183.195.266.016.017.028.037.045.054.008.008.014.018.021.026l.293.293v1.441l-2.875-2.875-.04-.041c-.026-.026-.057-.044-.085-.068-.05-.045-.098-.091-.154-.13-.023-.016-.05-.027-.074-.042a1.64 1.64 0 0 0-.21-.115l-.003-.002c-.024-.01-.051-.015-.076-.024-.075-.028-.15-.057-.23-.074h-.003c-.02-.005-.044-.002-.066-.006-.087-.014-.174-.03-.266-.03h-3.404c-.072 0-.097-.019-.156-.027l-.45-.449c-.003-.004-.01-.004-.013-.008a.33.33 0 0 0-.104-.064c-.009-.004-.016-.009-.025-.012a.278.278 0 0 0-.154-.008.309.309 0 0 0-.164.116.307.307 0 0 0-.067.185V17.746c.001.145.036.28.084.41.013.034.024.066.04.098.058.122.132.237.226.334l.01.014.207.207v1.609c.016.234.054.448.103.648.015.06.036.112.053.168.04.13.082.258.135.373.03.065.064.122.097.182.057.102.116.2.182.29.033.044.068.085.104.126.038.044.07.096.11.137l.186.185a1.665 1.665 0 0 1-.07.31v.003a1.257 1.257 0 0 1-.129.267v.002a1.342 1.342 0 0 1-.181.225c-.07.07-.15.136-.237.201-.413.306-1.014.546-1.648.817-.634.27-1.306.596-1.824 1.17v.001c-.13.143-.248.3-.352.473v.002a3.204 3.204 0 0 0-.27.572v.002c-.073.208-.13.433-.17.68v.002c-.039.247-.06.514-.06.803v.214l19.455 19.456z" color="#000" font-family="Sans" font-weight="400" style="line-height:normal;-inkscape-font-specification:Sans;text-indent:0;text-align:start;text-decoration-line:none;text-transform:none;block-progression:tb;marker:none" transform="translate(0 1004.362)"></path>
    <path fill="#fff" d="M11.744 4.855a.386.386 0 0 0-.193.002.447.447 0 0 0-.324.422v3.033c0 .6.316 1.13.796 1.442v2.312c.097 1.379.628 2.342 1.368 2.934-.087.683-.382 1.078-.871 1.441-.58.43-1.422.763-2.311 1.143-.89.38-1.834.838-2.56 1.643-.727.804-1.194 1.93-1.194 3.554v.297l.248.1c2.277.988 3.427 1.494 4.002 1.74.287.123.417.19.498.223.04.016.056.012.1.025.01 0 .027.021.049.025h.025c.065.026.205.086.473.2.56.239 1.67.71 3.925 1.69l.176.075.174-.076a379.2 379.2 0 0 1 4.027-1.69c.281-.115.423-.196.496-.224h.026l.1-.025c.034-.011.034-.009.074-.024.079-.033.24-.102.521-.224.563-.244 1.686-.738 3.928-1.715l.248-.1v-.297c0-1.586-.472-2.702-1.193-3.48-.722-.778-1.657-1.196-2.536-1.567-.878-.37-1.716-.703-2.287-1.144-.56-.433-.883-.932-.894-1.889.772-.639 1.308-1.537 1.342-2.635V8.19c0-1.388-1.05-2.537-2.385-2.537h-4.774c-.273 0-.498-.044-.597-.1-.1-.054-.123-.063-.123-.273.001-.2-.163-.377-.354-.424zm-8.11 2.422a.318.318 0 0 0-.23.301v2.164c0 .427.224.805.567 1.028v1.648c.069.983.447 1.67.974 2.092-.062.487-.271.768-.62 1.027-.414.306-1.015.546-1.65.817-.633.27-1.305.596-1.823 1.17C.334 18.096 0 18.9 0 20.058v.212l.178.07c1.623.705 2.443 1.066 2.853 1.241.205.088.296.137.354.16.029.011.041.01.072.018.008 0 .02.014.035.017h.018l.336.143 1.615.695a7.128 7.128 0 0 1 .38-2.24l.538-2.953c.089-.275-.108-.416-.121-.432a.798.798 0 0 1-.281-.607.831.831 0 1 1 1.66 0 .86.86 0 0 1-.25.607s-.206.1-.117.432l.12.682c.786-.688 1.665-1.113 2.426-1.438.293-.125.543-.236.803-.352-.496-.209-.964-.414-1.295-.67-.4-.308-.63-.664-.638-1.347.55-.456.933-1.096.957-1.879V9.652c0-.99-.75-1.806-1.702-1.806H4.537c-.194 0-.353-.034-.424-.073-.07-.039-.09-.045-.09-.195.002-.19-.205-.35-.388-.3zm24.595 0c-.136.034-.254.159-.252.301 0 .15-.02.156-.09.195-.07.04-.23.073-.424.073h-3.404c-.952 0-1.702.816-1.702 1.806v2.766c.024.783.407 1.423.957 1.879-.008.683-.238 1.039-.638 1.348-.367.283-.896.504-1.453.738.305.139.624.278.982.43.736.31 1.605.701 2.39 1.365l.135-.756c.09-.332-.117-.432-.117-.432a.86.86 0 0 1-.25-.607.831.831 0 1 1 1.66 0 .798.798 0 0 1-.28.607c-.014.016-.21.157-.122.432l.557 3.062c.218.63.345 1.343.361 2.131l1.615-.695.336-.143h.018c.015-.003.027-.017.035-.017.03-.008.043-.007.072-.018.058-.023.149-.072.354-.16.41-.175 1.23-.536 2.853-1.24l.178-.07v-.213c0-1.159-.334-1.962-.852-2.536-.518-.573-1.19-.899-1.824-1.17-.634-.27-1.235-.51-1.648-.816-.35-.259-.56-.54-.621-1.027.527-.423.905-1.11.974-2.092V10.77c.343-.223.567-.6.567-1.028V7.578a.318.318 0 0 0-.23-.3.27.27 0 0 0-.137 0zM16 16.46c.644 0 1.166.522 1.166 1.166 0 .318-.131.638-.354.854 0 0-.288.14-.164.605l.944 5.273-1.592.797-1.56-.804.96-5.266c.125-.385-.15-.583-.17-.605a1.125 1.125 0 0 1-.396-.854c0-.644.522-1.166 1.166-1.166Z" color="#000" font-family="Sans" font-weight="400" overflow="visible" style="line-height:normal;-inkscape-font-specification:Sans;text-indent:0;text-align:start;text-decoration-line:none;text-transform:none;block-progression:tb;marker:none" transform="translate(8 1012.362)"></path>
  </g>
</svg>
