<svg xmlns="http://www.w3.org/2000/svg" width="48" height="48" id="secure">
  <g transform="translate(0 -1004.362)">
    <circle cx="24" cy="1028.362" r="24" fill="#ef4c45" fill-rule="evenodd"></circle>
    <path fill="#df2209" d="M45.857 33.86a24 24 0 0 0 .248-.514 24 24 0 0 0 .823-2.254 24 24 0 0 0 .593-2.324 24 24 0 0 0 .36-2.372A24 24 0 0 0 48 24a24 24 0 0 0-.06-1.697 24 24 0 0 0-.29-2.383 24 24 0 0 0-.148-.662L39 10.756l-5.484-2.758-5.485 2.758c0 .511.024 1.003.059 1.484.01.14.024.279.037.416.039.402.09.792.158 1.17.014.08.024.162.04.24.087.443.198.866.33 1.274.087.27.178.538.286.793.009.02.02.037.028.056a8.232 8.232 0 0 0 .888 1.55c.028.036.053.074.08.11.18.234.374.457.583.669.011.011.02.025.033.037l15.304 15.304zM24.2 47.991a24 24 0 0 0 1.498-.053 24 24 0 0 0 2.383-.289 24 24 0 0 0 2.34-.525 24 24 0 0 0 2.277-.756 24 24 0 0 0 2.19-.98 24 24 0 0 0 2.08-1.194 24 24 0 0 0 1.951-1.394 24 24 0 0 0 1.803-1.584 24 24 0 0 0 1.634-1.756 24 24 0 0 0 1.454-1.91 24 24 0 0 0 1.254-2.045 24 24 0 0 0 .673-1.397L26.713 15.086l-.072-.072c-.054-.054-.117-.096-.174-.145-.07-.06-.138-.123-.213-.176-.09-.063-.188-.113-.285-.166-.063-.033-.12-.072-.186-.101a2.734 2.734 0 0 0-.388-.131c-.049-.013-.094-.034-.143-.045a2.726 2.726 0 0 0-.572-.06H18.95c-.089 0-.16-.013-.238-.02l-.781-.781c-.01-.01-.022-.012-.032-.02a.563.563 0 0 0-.144-.088c-.026-.012-.047-.029-.074-.037a.47.47 0 0 0-.254-.01.536.536 0 0 0-.387.508v3.643c0 .165.025.324.063.478.01.044.027.085.04.127.035.11.078.214.13.315.022.043.043.085.068.127.063.105.135.202.217.295.021.024.04.05.062.074.009.009.015.02.024.03l.351.35V21.89c.024.338.074.651.139.949.007.034.013.068.021.101.066.276.149.532.246.772.019.046.04.09.059.135.101.229.214.443.342.638l.062.088c.091.132.193.246.295.362.054.061.101.134.158.191l.313.313c-.109.801-.458 1.27-1.04 1.7-.694.516-1.705.92-2.773 1.376-1.067.456-2.202 1.001-3.074 1.966-.872.966-1.432 2.318-1.431 4.268v.357l12.886 12.887z" color="#000" font-family="Sans" font-weight="400" style="line-height:normal;-inkscape-font-specification:Sans;text-indent:0;text-align:start;text-decoration-line:none;text-transform:none;block-progression:tb;marker:none" transform="translate(0 1004.362)"></path>
    <path fill="#fff" d="m24.36 0-5.485 2.758c0 4.654 1.37 8.103 5.484 9.654 4.114-1.551 5.485-5.003 5.485-9.654L24.359 0ZM8.27 5.236a.536.536 0 0 0-.386.508v3.64c0 .72.378 1.357.955 1.731v2.774c.116 1.654.752 2.81 1.64 3.521-.104.82-.457 1.295-1.044 1.73-.695.516-1.706.918-2.774 1.374-1.067.456-2.202 1.003-3.074 1.968-.872.966-1.432 2.318-1.432 4.268v.357l.3.12c2.732 1.186 4.112 1.793 4.802 2.087.345.148.5.231.597.27.05.019.067.013.12.03.013 0 .032.024.058.029h.03l.568.24c.672.287 2.006.853 4.713 2.027l.209.092.209-.092a452.106 452.106 0 0 1 4.834-2.027c.337-.14.51-.236.597-.27h.03c.051-.01.098-.022.119-.029.041-.013.042-.012.09-.031.095-.04.289-.121.627-.268.675-.293 2.022-.886 4.712-2.058l.3-.12v-.357c0-1.904-.566-3.244-1.432-4.178-.866-.933-1.991-1.435-3.045-1.88-1.054-.446-2.059-.842-2.744-1.372-.673-.52-1.06-1.118-1.075-2.267.927-.767 1.571-1.847 1.612-3.164V9.235c0-1.667-1.262-3.044-2.864-3.044H9.795c-.328 0-.598-.053-.717-.119s-.148-.076-.148-.328c.003-.32-.35-.59-.659-.508zm5.342 13.926c.773 0 1.399.626 1.399 1.399-.001.381-.157.766-.424 1.025 0 0-.347.169-.197.727l1.132 6.33-1.91.955-1.873-.965 1.153-6.32c.15-.462-.18-.7-.204-.727a1.351 1.351 0 0 1-.474-1.025c0-.773.626-1.399 1.398-1.399z" color="#000" font-family="Sans" font-weight="400" overflow="visible" style="line-height:normal;-inkscape-font-specification:Sans;text-indent:0;text-align:start;text-decoration-line:none;text-transform:none;block-progression:tb;marker:none" transform="translate(9.156 1012.361)"></path>
  </g>
</svg>
